<?xml version="1.0" encoding="UTF-8" standalone="no"?>
<!-- Generator: Adobe Illustrator 19.1.0, SVG Export Plug-In . SVG Version: 6.00 Build 0)  -->

<svg
   xmlns:dc="http://purl.org/dc/elements/1.1/"
   xmlns:cc="http://creativecommons.org/ns#"
   xmlns:rdf="http://www.w3.org/1999/02/22-rdf-syntax-ns#"
   xmlns:svg="http://www.w3.org/2000/svg"
   xmlns="http://www.w3.org/2000/svg"
   xmlns:sodipodi="http://sodipodi.sourceforge.net/DTD/sodipodi-0.dtd"
   xmlns:inkscape="http://www.inkscape.org/namespaces/inkscape"
   version="1.1"
   id="Capa_1"
   x="0px"
   y="0px"
   viewBox="0 0 405.457 405.457"
   style="enable-background:new 0 0 405.457 405.457;"
   xml:space="preserve"
   inkscape:version="0.48.4 r9939"
   width="100%"
   height="100%"
   sodipodi:docname="right-arrow.svg"
   inkscape:export-filename="/home/tgirke/Desktop/right-arrow.png"
   inkscape:export-xdpi="16.203938"
   inkscape:export-ydpi="16.203938"><metadata
     id="metadata41"><rdf:RDF><cc:Work
         rdf:about=""><dc:format>image/svg+xml</dc:format><dc:type
           rdf:resource="http://purl.org/dc/dcmitype/StillImage" /><dc:title></dc:title></cc:Work></rdf:RDF></metadata><defs
     id="defs39" /><sodipodi:namedview
     pagecolor="#ffffff"
     bordercolor="#666666"
     borderopacity="1"
     objecttolerance="10"
     gridtolerance="10"
     guidetolerance="10"
     inkscape:pageopacity="0"
     inkscape:pageshadow="2"
     inkscape:window-width="1920"
     inkscape:window-height="1056"
     id="namedview37"
     showgrid="false"
     inkscape:zoom="0.58205926"
     inkscape:cx="340.17155"
     inkscape:cy="202.7285"
     inkscape:window-x="0"
     inkscape:window-y="24"
     inkscape:window-maximized="1"
     inkscape:current-layer="Capa_1" /><g
     id="g3"
     style="fill:#b4b9cb"
     inkscape:export-xdpi="16.23564"
     inkscape:export-ydpi="16.23564"><path
       style="fill:#b4b9cb"
       d="M64.147,331.322c0.078,4.985,2.163,9.911,5.688,13.438l55,55c3.599,3.601,8.659,5.697,13.75,5.697   c5.091,0,10.151-2.096,13.75-5.697l183.281-183.282c3.601-3.599,5.697-8.659,5.697-13.75s-2.096-10.151-5.697-13.75L152.335,5.697   C148.736,2.096,143.676,0,138.585,0c-5.091,0-10.151,2.096-13.75,5.697l-55,55c-3.591,3.598-5.681,8.651-5.681,13.734   s2.09,10.136,5.681,13.734l114.562,114.563L69.835,317.291C66.171,320.958,64.07,326.139,64.147,331.322L64.147,331.322z"
       id="path5" /></g><g
     id="g7" /><g
     id="g9" /><g
     id="g11" /><g
     id="g13" /><g
     id="g15" /><g
     id="g17" /><g
     id="g19" /><g
     id="g21" /><g
     id="g23" /><g
     id="g25" /><g
     id="g27" /><g
     id="g29" /><g
     id="g31" /><g
     id="g33" /><g
     id="g35" /></svg>